<svg width="306" height="120" viewBox="0 0 306 120" fill="none" xmlns="http://www.w3.org/2000/svg">
<g clip-path="url(#clip0_9_2)">
<rect width="306" height="120" fill="white"/>
<path d="M-90 -34V153.5M-72 -34V153.5M-54 -34V153.5M-36 -34V153.5M-18 -34V153.5M0 -34V153.5M18 -34V153.5M36 -34V153.5M54 -34V153.5M72 -34V153.5M90 -34V153.5M108 -34V153.5M126 -34V153.5M144 -34V153.5M162 -34V153.5M180 -34V153.5M198 -34V153.5M216 -34V153.5M234 -34V153.5M252 -34V153.5M270 -34V153.5M288 -34V153.5M306 -34V153.5M324 -34V153.5M342 -34V153.5M360 -34V153.5M378 -34V153.5M396 -34V153.5M396 -16.5L-91 -16.5M396 1.5L-91 1.49997M396 19.5L-91 19.5M396 37.5L-91 37.5M396 55.5L-91 55.5M396 73.5L-91 73.5M396 91.5L-91 91.5M396 109.5H-91M396 127.5H-91" stroke="url(#paint0_radial_9_2)"/>
<path d="M75.048 85H60.936L42.144 56.632V85H28.032V34.24H42.144L60.936 62.968V34.24H75.048V85ZM115.199 76.72H97.1987L94.4627 85H79.6307L98.1347 34.24H114.407L132.839 85H117.935L115.199 76.72ZM111.671 65.92L106.199 49.504L100.799 65.92H111.671ZM226.928 34.24V45.472H213.392V85H199.28V45.472H185.888V34.24H226.928ZM277.581 34.24V85H263.469V64.624H246.261V85H232.149V34.24H246.261V53.32H263.469V34.24H277.581Z" fill="black"/>
<path d="M72 35C72 29.6957 69.8929 24.6086 66.1421 20.8579C62.3914 17.1071 57.3043 15 52 15C46.6957 15 41.6086 17.1071 37.8579 20.8579C34.1071 24.6086 32 29.6957 32 35L35.9816 35C35.9816 30.7516 37.6692 26.6773 40.6732 23.6732C43.6773 20.6692 47.7516 18.9815 52 18.9816C56.2484 18.9816 60.3227 20.6692 63.3268 23.6732C66.3308 26.6773 68.0184 30.7516 68.0184 35H72Z" fill="black"/>
<path d="M157 32L175 39.9781V58.5938C175 74.55 156.5 85.1875 156.5 85.1875C156.5 85.1875 138 74.55 138 58.5938V39.9781L157 32Z" stroke="black" stroke-width="9.25" stroke-linecap="round" stroke-linejoin="round"/>
<path d="M160 55C160 56.1104 159.397 57.0799 158.5 57.5987C158.059 57.8539 157.546 58 157 58C156.454 58 155.941 57.8539 155.5 57.5987C154.603 57.0799 154 56.1104 154 55C154 53.3431 155.343 52 157 52C158.657 52 160 53.3431 160 55Z" fill="black"/>
<path d="M158.5 57.5987C158.059 57.8539 157.546 58 157 58C156.454 58 155.941 57.8539 155.5 57.5987V63C155.5 63.5523 156.448 64 157 64C157.552 64 158.5 63.5523 158.5 63V57.5987Z" fill="black"/>
</g>
<defs>
<radialGradient id="paint0_radial_9_2" cx="0" cy="0" r="1" gradientUnits="userSpaceOnUse" gradientTransform="translate(158.078 59.75) rotate(90.0574) scale(77.75 220.758)">
<stop stop-color="#FAFAFA"/>
<stop offset="0.649291" stop-color="#7D7D7D" stop-opacity="0.05"/>
<stop offset="1" stop-opacity="0"/>
</radialGradient>
<clipPath id="clip0_9_2">
<rect width="306" height="120" fill="white"/>
</clipPath>
</defs>
</svg>
