<svg width="700" height="200" viewBox="0 0 700 200" fill="none" xmlns="http://www.w3.org/2000/svg">
<g clip-path="url(#clip0_1_2)">
<rect width="700" height="200" fill="white"/>
<path d="M-258 -298V489M-240 -298V489M-222 -298V489M-204 -298V489M-186 -298V489M-168 -298V489M-150 -298V489M-132 -298V489M-114 -298V489M-96 -298V489M-78 -298V489M-60 -298V489M-42 -298V489M-24 -298V489M-6 -298V489M12 -298V489M30 -298V489M48 -298V489M66 -298V489M84 -298V489M102 -298V489M120 -298V489M138 -298V489M156 -298V489M174 -298V489M192 -298V489M210 -298V489M228 -298V489M246 -298V489M264 -298V489M282 -298V489M300 -298V489M318 -298V489M336 -298V489M354 -298V489M372 -298V489M390 -298V489M408 -298V489M426 -298V489M444 -298V489M462 -298V489M480 -298V489M498 -298V489M516 -298V489M534 -298V489M552 -298V489M570 -298V489M588 -298V489M606 -298V489M624 -298V489M642 -298V489M660 -298V489M678 -298V489M696 -298V489M714 -298V489M732 -298V489M750 -298V489M768 -298V489M786 -298V489M804 -298V489M822 -298V489M840 -298V489M858 -298V489M876 489V-298L-259 -298M876 -280L-259 -280M876 -262L-259 -262M876 -244L-259 -244M876 -226L-259 -226M876 -208L-259 -208M876 -190L-259 -190M876 -172L-259 -172M876 -154L-259 -154M876 -136L-259 -136M876 -118L-259 -118M876 -100L-259 -100M876 -82L-259 -82M876 -64L-259 -64M876 -46L-259 -46M876 -28L-259 -28M876 -10L-259 -10M876 8L-259 7.99997M876 26L-259 26M876 44L-259 44M876 62L-259 62M876 80L-259 80M876 98L-259 98M876 116L-259 116M876 134L-259 134M876 152L-259 152M876 170L-259 170M876 188L-259 188M876 206L-259 206M876 224H-259M876 242H-259M876 260H-259M876 278H-259M876 296H-259M876 314H-259M876 332H-259M876 350H-259M876 368H-259M876 386H-259M876 404H-259M876 422H-259M876 440H-259M876 458H-259M876 476L-259 476M876 494L-259 494" stroke="url(#paint0_radial_1_2)"/>
<path d="M272.048 125H257.936L239.144 96.632V125H225.032V74.24H239.144L257.936 102.968V74.24H272.048V125ZM312.199 116.72H294.199L291.463 125H276.631L295.135 74.24H311.407L329.839 125H314.935L312.199 116.72ZM308.671 105.92L303.199 89.504L297.799 105.92H308.671ZM423.928 74.24V85.472H410.392V125H396.28V85.472H382.888V74.24H423.928ZM474.581 74.24V125H460.469V104.624H443.261V125H429.149V74.24H443.261V93.32H460.469V74.24H474.581Z" fill="black"/>
<path d="M269 75C269 69.6957 266.893 64.6086 263.142 60.8579C259.391 57.1071 254.304 55 249 55C243.696 55 238.609 57.1071 234.858 60.8579C231.107 64.6086 229 69.6957 229 75L232.982 75C232.982 70.7516 234.669 66.6773 237.673 63.6732C240.677 60.6692 244.752 58.9815 249 58.9816C253.248 58.9816 257.323 60.6692 260.327 63.6732C263.331 66.6773 265.018 70.7516 265.018 75H269Z" fill="black"/>
<path d="M354 72L372 79.9781V98.5938C372 114.55 353.5 125.188 353.5 125.188C353.5 125.188 335 114.55 335 98.5938V79.9781L354 72Z" stroke="black" stroke-width="9.25" stroke-linecap="round" stroke-linejoin="round"/>
<path d="M357 95C357 96.1104 356.397 97.0799 355.5 97.5987C355.059 97.8539 354.546 98 354 98C353.454 98 352.941 97.8539 352.5 97.5987C351.603 97.0799 351 96.1104 351 95C351 93.3431 352.343 92 354 92C355.657 92 357 93.3431 357 95Z" fill="black"/>
<path d="M355.5 97.5987C355.059 97.8539 354.546 98 354 98C353.454 98 352.941 97.8539 352.5 97.5987V103C352.5 103.552 353.448 104 354 104C354.552 104 355.5 103.552 355.5 103V97.5987Z" fill="black"/>
</g>
<defs>
<radialGradient id="paint0_radial_1_2" cx="0" cy="0" r="1" gradientUnits="userSpaceOnUse" gradientTransform="translate(321.5 98) rotate(91.3803) scale(83.0241 224.754)">
<stop stop-color="#FAFAFA"/>
<stop offset="0.649291" stop-color="#7D7D7D" stop-opacity="0.05"/>
<stop offset="1" stop-opacity="0"/>
</radialGradient>
<clipPath id="clip0_1_2">
<rect width="700" height="200" fill="white"/>
</clipPath>
</defs>
</svg>
