<svg width="120" height="120" viewBox="0 0 120 120" fill="none" xmlns="http://www.w3.org/2000/svg">
<g clip-path="url(#clip0_9_9)">
<rect width="120" height="120" fill="white"/>
<path d="M93.6669 109H73.0256L45.5389 67.5067V109H24.8975V34.7543H45.5389L73.0256 76.7742V34.7543H93.6669V109Z" fill="black"/>
<path d="M89.2086 35.4177C89.2086 27.6592 86.1266 20.2184 80.6405 14.7323C75.1543 9.24621 67.7136 6.16414 59.955 6.16414C52.1965 6.16414 44.7557 9.24621 39.2696 14.7323C33.7835 20.2184 30.7014 27.6592 30.7014 35.4177L36.5252 35.4177C36.5252 29.2038 38.9937 23.2443 43.3876 18.8503C47.7816 14.4564 53.741 11.9879 59.955 11.9879C66.169 11.9879 72.1285 14.4564 76.5225 18.8503C80.9164 23.2443 83.3849 29.2038 83.3849 35.4177H89.2086Z" fill="black"/>
</g>
<defs>
<clipPath id="clip0_9_9">
<rect width="120" height="120" fill="white"/>
</clipPath>
</defs>
</svg>
