<svg width="120" height="120" viewBox="0 0 120 120" fill="none" xmlns="http://www.w3.org/2000/svg">
<rect width="120" height="120" fill="white"/>
<path d="M83.048 91H68.936L50.144 62.632V91H36.032V40.24H50.144L68.936 68.968V40.24H83.048V91Z" fill="black"/>
<path d="M80 41C80 35.6957 77.8929 30.6086 74.1421 26.8579C70.3914 23.1071 65.3043 21 60 21C54.6957 21 49.6086 23.1071 45.8579 26.8579C42.1071 30.6086 40 35.6957 40 41L43.9816 41C43.9816 36.7516 45.6692 32.6773 48.6732 29.6732C51.6773 26.6692 55.7516 24.9815 60 24.9816C64.2484 24.9816 68.3227 26.6692 71.3268 29.6732C74.3308 32.6773 76.0184 36.7516 76.0184 41H80Z" fill="black"/>
</svg>
