<svg width="548" height="225" viewBox="0 0 548 225" fill="none" xmlns="http://www.w3.org/2000/svg">
<g clip-path="url(#clip0_6_12)">
<path d="M133.409 0C136.171 0 138.409 2.23858 138.409 5V217C138.409 219.761 136.171 222 133.409 222H120.571C118.932 222 117.397 221.197 116.463 219.851L23.1747 85.4355C22.9656 85.1342 22.6222 84.9545 22.2554 84.9545V84.9545C21.6374 84.9545 21.1364 85.4555 21.1364 86.0736V217C21.1364 219.761 18.8978 222 16.1364 222H5C2.23858 222 0 219.761 0 217V52.4545C0 49.6931 2.23858 47.4545 5 47.4545H17.8401C19.4779 47.4545 21.0118 48.2566 21.9463 49.6016L115.575 184.36C115.784 184.661 116.128 184.841 116.494 184.841V184.841C117.113 184.841 117.614 184.34 117.614 183.722V5C117.614 2.23858 119.852 0 122.614 0H133.409Z" fill="black"/>
<path d="M189.043 218.673C188.335 220.667 186.448 222 184.331 222H172.865C169.389 222 166.974 218.54 168.172 215.277L228.591 50.7311C229.314 48.7628 231.188 47.4545 233.285 47.4545H248.122C250.219 47.4545 252.093 48.7628 252.815 50.7311L313.234 215.277C314.433 218.54 312.017 222 308.541 222H297.075C294.958 222 293.071 220.667 292.363 218.673L241.613 75.7107C241.476 75.3255 241.112 75.0682 240.703 75.0682V75.0682C240.294 75.0682 239.93 75.3255 239.793 75.7107L189.043 218.673ZM196.044 158.818C196.044 156.057 198.283 153.818 201.044 153.818H280.362C283.124 153.818 285.362 156.057 285.362 158.818V167.568C285.362 170.33 283.124 172.568 280.362 172.568H201.044C198.283 172.568 196.044 170.33 196.044 167.568V158.818Z" fill="black"/>
<path d="M457.436 102.5C457.436 99.7386 459.675 97.5 462.436 97.5H473.572C476.334 97.5 478.572 99.7386 478.572 102.5V163.023C478.572 174.955 475.76 185.608 470.135 194.983C464.567 204.301 456.697 211.659 446.527 217.057C436.357 222.398 424.425 225.068 410.732 225.068C397.038 225.068 385.107 222.398 374.936 217.057C364.766 211.659 356.868 204.301 351.243 194.983C345.675 185.608 342.891 174.955 342.891 163.023V52.4545C342.891 49.6931 345.129 47.4545 347.891 47.4545H359.027C361.788 47.4545 364.027 49.6931 364.027 52.4545V161.318C364.027 169.841 365.902 177.426 369.652 184.074C373.402 190.665 378.743 195.864 385.675 199.67C392.663 203.42 401.016 205.295 410.732 205.295C420.447 205.295 428.8 203.42 435.788 199.67C442.777 195.864 448.118 190.665 451.811 184.074C455.561 177.426 457.436 169.841 457.436 161.318V102.5Z" fill="black"/>
<path d="M475.688 21.8182C477.511 21.8182 478.99 23.2968 478.99 25.1207V25.1207C478.99 26.9447 477.511 28.4233 475.688 28.4233H451.057C449.233 28.4233 447.754 26.9447 447.754 25.1207V25.1207C447.754 23.2968 449.233 21.8182 451.057 21.8182H475.688ZM457.513 9.95029C457.513 7.84392 459.22 6.13636 461.327 6.13636V6.13636C463.433 6.13636 465.141 7.84392 465.141 9.95028V70.1847C465.141 72.9119 465.609 75.0568 466.547 76.6193C467.484 78.1534 468.706 79.2472 470.212 79.9006C471.717 80.5256 473.322 80.8381 475.027 80.8381C476.021 80.8381 476.874 80.7813 477.584 80.6676V80.6676C478.617 80.4609 479.658 81.0873 479.901 82.1131L480.427 84.3421C480.8 85.9233 479.941 87.5346 478.351 87.8693V87.8693C477.271 88.125 475.936 88.2528 474.345 88.2528C471.561 88.2528 468.876 87.642 466.291 86.4205C463.734 85.1989 461.632 83.3807 459.984 80.9659C458.337 78.5511 457.513 75.554 457.513 71.9744V9.95029Z" fill="black"/>
<path d="M505.208 46.3636V83.4801C505.208 85.5747 503.51 87.2727 501.415 87.2727V87.2727C499.321 87.2727 497.623 85.5747 497.623 83.4801V3.79261C497.623 1.69801 499.321 0 501.415 0V0C503.51 0 505.208 1.69801 505.208 3.79261V31.6734C505.208 31.9024 505.394 32.0881 505.623 32.0881V32.0881C505.785 32.0881 505.933 31.9926 506.002 31.8454C507.539 28.578 509.873 25.96 513.006 23.9915C516.245 21.9744 520.336 20.9659 525.279 20.9659C529.711 20.9659 533.603 21.875 536.955 23.6932C540.308 25.5114 542.921 28.196 544.796 31.7472C546.671 35.2983 547.609 39.6733 547.609 44.8722V83.4588C547.609 85.5652 545.901 87.2727 543.795 87.2727V87.2727C541.688 87.2727 539.981 85.5652 539.981 83.4588V45.3409C539.981 39.9432 538.475 35.696 535.464 32.5994C532.481 29.4744 528.447 27.9119 523.362 27.9119C519.867 27.9119 516.756 28.6506 514.029 30.1278C511.302 31.6051 509.143 33.7358 507.552 36.5199C505.989 39.2756 505.208 42.5568 505.208 46.3636Z" fill="black"/>
</g>
<defs>
<clipPath id="clip0_6_12">
<rect width="548" height="225" fill="white"/>
</clipPath>
</defs>
</svg>
