<svg width="742" height="167" viewBox="0 0 742 167" fill="none" xmlns="http://www.w3.org/2000/svg">
<path d="M132.016 0.484375V164H101.02L31.5029 50.5723V164H0.619141V0.484375H31.5029L101.244 114.024V0.484375H132.016ZM230.507 25.3037L183.9 164H151.22L212.313 0.484375H233.202L230.507 25.3037ZM269.477 164L222.646 25.3037L219.838 0.484375H240.839L302.27 164H269.477ZM267.343 103.243V127.613H179.633V103.243H267.343ZM408.061 0.484375H438.944V109.083C438.944 121.586 436.249 132.105 430.858 140.641C425.468 149.101 418.131 155.502 408.847 159.845C399.563 164.112 389.006 166.246 377.177 166.246C365.198 166.246 354.529 164.112 345.17 159.845C335.811 155.502 328.474 149.101 323.158 140.641C317.842 132.105 315.185 121.586 315.185 109.083V0.484375H346.068V109.083C346.068 116.72 347.341 122.971 349.887 127.838C352.432 132.63 356.026 136.186 360.668 138.507C365.31 140.828 370.813 141.988 377.177 141.988C383.616 141.988 389.118 140.828 393.686 138.507C398.327 136.186 401.884 132.63 404.354 127.838C406.825 122.971 408.061 116.72 408.061 109.083V0.484375ZM538.446 0.484375V164H507.675V0.484375H538.446ZM589.208 0.484375V24.8545H457.475V0.484375H589.208ZM718.246 67.9795V92.2373H632.221V67.9795H718.246ZM640.644 0.484375V164H609.76V0.484375H640.644ZM741.156 0.484375V164H710.272V0.484375H741.156Z" fill="black"/>
</svg>
