<svg width="548" height="285" viewBox="0 0 548 285" fill="none" xmlns="http://www.w3.org/2000/svg">
<g clip-path="url(#clip0_6_5)">
<path d="M133.409 0C136.171 0 138.409 2.23858 138.409 5V217C138.409 219.761 136.171 222 133.409 222H120.571C118.932 222 117.397 221.197 116.463 219.851L23.1747 85.4355C22.9656 85.1342 22.6222 84.9545 22.2554 84.9545V84.9545C21.6374 84.9545 21.1364 85.4555 21.1364 86.0736V217C21.1364 219.761 18.8978 222 16.1364 222H5C2.23858 222 0 219.761 0 217V52.4545C0 49.6931 2.23858 47.4545 5 47.4545H17.8401C19.4779 47.4545 21.0118 48.2566 21.9463 49.6016L115.575 184.36C115.784 184.661 116.128 184.841 116.494 184.841V184.841C117.113 184.841 117.614 184.34 117.614 183.722V5C117.614 2.23858 119.852 0 122.614 0H133.409Z" fill="black"/>
<path d="M189.043 218.673C188.335 220.667 186.448 222 184.331 222H172.865C169.389 222 166.974 218.54 168.172 215.277L228.591 50.7311C229.314 48.7628 231.188 47.4545 233.285 47.4545H248.122C250.219 47.4545 252.093 48.7628 252.815 50.7311L313.234 215.277C314.433 218.54 312.017 222 308.541 222H297.075C294.958 222 293.071 220.667 292.363 218.673L241.613 75.7107C241.476 75.3255 241.112 75.0682 240.703 75.0682V75.0682C240.294 75.0682 239.93 75.3255 239.793 75.7107L189.043 218.673ZM196.044 158.818C196.044 156.057 198.283 153.818 201.044 153.818H280.362C283.124 153.818 285.362 156.057 285.362 158.818V167.568C285.362 170.33 283.124 172.568 280.362 172.568H201.044C198.283 172.568 196.044 170.33 196.044 167.568V158.818Z" fill="black"/>
<path d="M457.436 102.5C457.436 99.7386 459.675 97.5 462.436 97.5H473.572C476.334 97.5 478.572 99.7386 478.572 102.5V163.023C478.572 174.955 475.76 185.608 470.135 194.983C464.567 204.301 456.697 211.659 446.527 217.057C436.357 222.398 424.425 225.068 410.732 225.068C397.038 225.068 385.107 222.398 374.936 217.057C364.766 211.659 356.868 204.301 351.243 194.983C345.675 185.608 342.891 174.955 342.891 163.023V52.4545C342.891 49.6931 345.129 47.4545 347.891 47.4545H359.027C361.788 47.4545 364.027 49.6931 364.027 52.4545V161.318C364.027 169.841 365.902 177.426 369.652 184.074C373.402 190.665 378.743 195.864 385.675 199.67C392.663 203.42 401.016 205.295 410.732 205.295C420.447 205.295 428.8 203.42 435.788 199.67C442.777 195.864 448.118 190.665 451.811 184.074C455.561 177.426 457.436 169.841 457.436 161.318V102.5Z" fill="black"/>
<path d="M475.688 21.8182C477.511 21.8182 478.99 23.2968 478.99 25.1207V25.1207C478.99 26.9447 477.511 28.4233 475.688 28.4233H451.057C449.233 28.4233 447.754 26.9447 447.754 25.1207V25.1207C447.754 23.2968 449.233 21.8182 451.057 21.8182H475.688ZM457.513 9.95029C457.513 7.84392 459.22 6.13636 461.327 6.13636V6.13636C463.433 6.13636 465.141 7.84392 465.141 9.95028V70.1847C465.141 72.9119 465.609 75.0568 466.547 76.6193C467.484 78.1534 468.706 79.2472 470.212 79.9006C471.717 80.5256 473.322 80.8381 475.027 80.8381C476.021 80.8381 476.874 80.7813 477.584 80.6676V80.6676C478.617 80.4609 479.658 81.0873 479.901 82.1131L480.427 84.3421C480.8 85.9233 479.941 87.5346 478.351 87.8693V87.8693C477.271 88.125 475.936 88.2528 474.345 88.2528C471.561 88.2528 468.876 87.642 466.291 86.4205C463.734 85.1989 461.632 83.3807 459.984 80.9659C458.337 78.5511 457.513 75.554 457.513 71.9744V9.95029Z" fill="black"/>
<path d="M505.208 46.3636V83.4801C505.208 85.5747 503.51 87.2727 501.415 87.2727V87.2727C499.321 87.2727 497.623 85.5747 497.623 83.4801V3.79261C497.623 1.69801 499.321 0 501.415 0V0C503.51 0 505.208 1.69801 505.208 3.79261V31.6734C505.208 31.9024 505.394 32.0881 505.623 32.0881V32.0881C505.785 32.0881 505.933 31.9926 506.002 31.8454C507.539 28.578 509.873 25.96 513.006 23.9915C516.245 21.9744 520.336 20.9659 525.279 20.9659C529.711 20.9659 533.603 21.875 536.955 23.6932C540.308 25.5114 542.921 28.196 544.796 31.7472C546.671 35.2983 547.609 39.6733 547.609 44.8722V83.4588C547.609 85.5652 545.901 87.2727 543.795 87.2727V87.2727C541.688 87.2727 539.981 85.5652 539.981 83.4588V45.3409C539.981 39.9432 538.475 35.696 535.464 32.5994C532.481 29.4744 528.447 27.9119 523.362 27.9119C519.867 27.9119 516.756 28.6506 514.029 30.1278C511.302 31.6051 509.143 33.7358 507.552 36.5199C505.989 39.2756 505.208 42.5568 505.208 46.3636Z" fill="black"/>
</g>
<path d="M52.044 264V245.818H58.1875C59.6079 245.818 60.7739 246.061 61.6853 246.546C62.5968 247.026 63.2715 247.685 63.7095 248.526C64.1474 249.366 64.3664 250.322 64.3664 251.393C64.3664 252.465 64.1474 253.415 63.7095 254.243C63.2715 255.072 62.5997 255.723 61.6942 256.196C60.7887 256.664 59.6316 256.898 58.223 256.898H53.2514V254.909H58.1519C59.1226 254.909 59.9038 254.767 60.4957 254.483C61.0935 254.199 61.5255 253.796 61.7919 253.276C62.0641 252.749 62.2002 252.121 62.2002 251.393C62.2002 250.665 62.0641 250.029 61.7919 249.485C61.5196 248.94 61.0846 248.52 60.4868 248.224C59.889 247.922 59.0989 247.771 58.1164 247.771H54.2457V264H52.044ZM60.6022 255.832L65.0767 264H62.5198L58.1164 255.832H60.6022ZM73.322 264.284C72.008 264.284 70.8746 263.994 69.9217 263.414C68.9748 262.828 68.2438 262.011 67.7289 260.964C67.2199 259.91 66.9654 258.685 66.9654 257.288C66.9654 255.892 67.2199 254.661 67.7289 253.595C68.2438 252.524 68.96 251.689 69.8774 251.092C70.8006 250.488 71.8778 250.186 73.1089 250.186C73.8191 250.186 74.5205 250.304 75.2129 250.541C75.9054 250.778 76.5357 251.163 77.1039 251.695C77.6721 252.222 78.1249 252.92 78.4622 253.79C78.7996 254.661 78.9683 255.732 78.9683 257.004V257.892H68.4569V256.081H76.8376C76.8376 255.312 76.6837 254.625 76.3759 254.021C76.0741 253.418 75.642 252.941 75.0798 252.592C74.5234 252.243 73.8665 252.068 73.1089 252.068C72.2744 252.068 71.5523 252.275 70.9427 252.69C70.339 253.098 69.8744 253.631 69.5489 254.288C69.2234 254.945 69.0606 255.649 69.0606 256.401V257.608C69.0606 258.638 69.2381 259.511 69.5933 260.227C69.9543 260.937 70.4544 261.479 71.0936 261.852C71.7328 262.219 72.4756 262.402 73.322 262.402C73.8724 262.402 74.3695 262.325 74.8134 262.171C75.2632 262.011 75.6509 261.775 75.9764 261.461C76.302 261.141 76.5535 260.745 76.731 260.271L78.7552 260.839C78.5421 261.526 78.1841 262.13 77.681 262.651C77.1779 263.165 76.5564 263.568 75.8166 263.858C75.0768 264.142 74.2453 264.284 73.322 264.284ZM86.1682 264.32C85.3041 264.32 84.5199 264.157 83.8156 263.831C83.1113 263.5 82.552 263.023 82.1377 262.402C81.7234 261.775 81.5162 261.017 81.5162 260.129C81.5162 259.348 81.6701 258.715 81.9778 258.229C82.2856 257.738 82.697 257.353 83.2119 257.075C83.7268 256.797 84.295 256.59 84.9164 256.454C85.5438 256.312 86.1741 256.199 86.8074 256.116C87.636 256.01 88.3078 255.93 88.8227 255.877C89.3435 255.818 89.7223 255.72 89.959 255.584C90.2017 255.448 90.323 255.211 90.323 254.874V254.803C90.323 253.927 90.0833 253.246 89.6039 252.761C89.1304 252.275 88.4113 252.033 87.4466 252.033C86.4464 252.033 85.6622 252.252 85.094 252.69C84.5258 253.128 84.1263 253.595 83.8955 254.092L81.9068 253.382C82.2619 252.554 82.7354 251.908 83.3273 251.447C83.9251 250.979 84.5761 250.654 85.2804 250.47C85.9906 250.281 86.689 250.186 87.3756 250.186C87.8136 250.186 88.3166 250.239 88.8848 250.346C89.4589 250.446 90.0123 250.657 90.545 250.976C91.0836 251.296 91.5304 251.778 91.8855 252.423C92.2406 253.068 92.4182 253.933 92.4182 255.016V264H90.323V262.153H90.2165C90.0744 262.449 89.8377 262.766 89.5063 263.103C89.1748 263.441 88.7339 263.728 88.1835 263.964C87.633 264.201 86.9613 264.32 86.1682 264.32ZM86.4878 262.438C87.3164 262.438 88.0148 262.275 88.583 261.949C89.1571 261.624 89.5891 261.203 89.8791 260.689C90.1751 260.174 90.323 259.632 90.323 259.064V257.146C90.2342 257.253 90.0389 257.35 89.7371 257.439C89.4412 257.522 89.0979 257.596 88.7073 257.661C88.3225 257.72 87.9467 257.774 87.5798 257.821C87.2187 257.862 86.9258 257.898 86.7009 257.928C86.1564 257.999 85.6474 258.114 85.1739 258.274C84.7063 258.428 84.3275 258.661 84.0375 258.975C83.7534 259.283 83.6114 259.703 83.6114 260.236C83.6114 260.964 83.8807 261.514 84.4193 261.887C84.9638 262.254 85.6533 262.438 86.4878 262.438ZM98.3375 245.818V264H96.2423V245.818H98.3375ZM108.496 247.771V245.818H122.132V247.771H116.415V264H114.213V247.771H108.496ZM125.246 264V250.364H127.341V264H125.246ZM126.312 248.091C125.903 248.091 125.551 247.952 125.255 247.674C124.965 247.395 124.82 247.061 124.82 246.67C124.82 246.28 124.965 245.945 125.255 245.667C125.551 245.389 125.903 245.25 126.312 245.25C126.72 245.25 127.069 245.389 127.359 245.667C127.655 245.945 127.803 246.28 127.803 246.67C127.803 247.061 127.655 247.395 127.359 247.674C127.069 247.952 126.72 248.091 126.312 248.091ZM131.179 264V250.364H133.203V252.494H133.381C133.665 251.766 134.123 251.201 134.757 250.799C135.39 250.39 136.15 250.186 137.038 250.186C137.938 250.186 138.687 250.39 139.284 250.799C139.888 251.201 140.359 251.766 140.696 252.494H140.838C141.187 251.79 141.711 251.231 142.409 250.816C143.108 250.396 143.945 250.186 144.922 250.186C146.141 250.186 147.138 250.568 147.914 251.331C148.689 252.089 149.077 253.27 149.077 254.874V264H146.981V254.874C146.981 253.867 146.706 253.148 146.156 252.716C145.605 252.284 144.957 252.068 144.212 252.068C143.253 252.068 142.51 252.358 141.983 252.938C141.456 253.512 141.193 254.24 141.193 255.122V264H139.062V254.661C139.062 253.885 138.811 253.261 138.308 252.787C137.805 252.308 137.157 252.068 136.364 252.068C135.819 252.068 135.31 252.213 134.837 252.503C134.369 252.793 133.99 253.196 133.7 253.711C133.416 254.22 133.274 254.808 133.274 255.477V264H131.179ZM158.625 264.284C157.311 264.284 156.177 263.994 155.224 263.414C154.278 262.828 153.547 262.011 153.032 260.964C152.523 259.91 152.268 258.685 152.268 257.288C152.268 255.892 152.523 254.661 153.032 253.595C153.547 252.524 154.263 251.689 155.18 251.092C156.103 250.488 157.181 250.186 158.412 250.186C159.122 250.186 159.823 250.304 160.516 250.541C161.208 250.778 161.838 251.163 162.407 251.695C162.975 252.222 163.428 252.92 163.765 253.79C164.102 254.661 164.271 255.732 164.271 257.004V257.892H153.76V256.081H162.14C162.14 255.312 161.986 254.625 161.679 254.021C161.377 253.418 160.945 252.941 160.383 252.592C159.826 252.243 159.169 252.068 158.412 252.068C157.577 252.068 156.855 252.275 156.245 252.69C155.642 253.098 155.177 253.631 154.852 254.288C154.526 254.945 154.363 255.649 154.363 256.401V257.608C154.363 258.638 154.541 259.511 154.896 260.227C155.257 260.937 155.757 261.479 156.396 261.852C157.036 262.219 157.778 262.402 158.625 262.402C159.175 262.402 159.672 262.325 160.116 262.171C160.566 262.011 160.954 261.775 161.279 261.461C161.605 261.141 161.856 260.745 162.034 260.271L164.058 260.839C163.845 261.526 163.487 262.13 162.984 262.651C162.481 263.165 161.859 263.568 161.119 263.858C160.38 264.142 159.548 264.284 158.625 264.284ZM175.519 264H173.211L179.887 245.818H182.16L188.836 264H186.528L181.095 248.695H180.952L175.519 264ZM176.371 256.898H185.675V258.851H176.371V256.898ZM199.978 258.425V250.364H202.073V264H199.978V261.692H199.836C199.516 262.384 199.019 262.973 198.344 263.458C197.669 263.938 196.817 264.178 195.787 264.178C194.935 264.178 194.177 263.991 193.515 263.618C192.852 263.239 192.331 262.671 191.952 261.914C191.573 261.15 191.384 260.188 191.384 259.028V250.364H193.479V258.886C193.479 259.881 193.757 260.674 194.314 261.266C194.876 261.857 195.592 262.153 196.462 262.153C196.983 262.153 197.513 262.02 198.051 261.754C198.596 261.488 199.051 261.079 199.418 260.529C199.791 259.978 199.978 259.277 199.978 258.425ZM211.841 250.364V252.139H204.774V250.364H211.841ZM206.834 247.097H208.929V260.094C208.929 260.686 209.015 261.129 209.186 261.425C209.364 261.715 209.589 261.911 209.861 262.011C210.139 262.106 210.432 262.153 210.74 262.153C210.971 262.153 211.16 262.142 211.308 262.118C211.456 262.088 211.574 262.065 211.663 262.047L212.089 263.929C211.947 263.982 211.749 264.036 211.494 264.089C211.24 264.148 210.917 264.178 210.527 264.178C209.935 264.178 209.355 264.05 208.787 263.796C208.224 263.541 207.757 263.154 207.384 262.633C207.017 262.112 206.834 261.455 206.834 260.662V247.097ZM217.38 255.797V264H215.285V245.818H217.38V252.494H217.558C217.878 251.79 218.357 251.231 218.996 250.816C219.641 250.396 220.5 250.186 221.571 250.186C222.5 250.186 223.314 250.373 224.012 250.745C224.711 251.112 225.252 251.678 225.637 252.441C226.027 253.199 226.223 254.163 226.223 255.335V264H224.128V255.477C224.128 254.394 223.846 253.557 223.284 252.965C222.728 252.367 221.956 252.068 220.967 252.068C220.281 252.068 219.665 252.213 219.121 252.503C218.582 252.793 218.156 253.216 217.842 253.773C217.534 254.329 217.38 255.004 217.38 255.797ZM235.773 264.284C234.459 264.284 233.326 263.994 232.373 263.414C231.426 262.828 230.695 262.011 230.18 260.964C229.671 259.91 229.417 258.685 229.417 257.288C229.417 255.892 229.671 254.661 230.18 253.595C230.695 252.524 231.411 251.689 232.329 251.092C233.252 250.488 234.329 250.186 235.56 250.186C236.27 250.186 236.972 250.304 237.664 250.541C238.357 250.778 238.987 251.163 239.555 251.695C240.123 252.222 240.576 252.92 240.913 253.79C241.251 254.661 241.419 255.732 241.419 257.004V257.892H230.908V256.081H239.289C239.289 255.312 239.135 254.625 238.827 254.021C238.525 253.418 238.093 252.941 237.531 252.592C236.975 252.243 236.318 252.068 235.56 252.068C234.726 252.068 234.003 252.275 233.394 252.69C232.79 253.098 232.326 253.631 232 254.288C231.675 254.945 231.512 255.649 231.512 256.401V257.608C231.512 258.638 231.689 259.511 232.044 260.227C232.405 260.937 232.906 261.479 233.545 261.852C234.184 262.219 234.927 262.402 235.773 262.402C236.324 262.402 236.821 262.325 237.265 262.171C237.714 262.011 238.102 261.775 238.428 261.461C238.753 261.141 239.005 260.745 239.182 260.271L241.206 260.839C240.993 261.526 240.635 262.13 240.132 262.651C239.629 263.165 239.008 263.568 238.268 263.858C237.528 264.142 236.696 264.284 235.773 264.284ZM246.702 255.797V264H244.607V250.364H246.631V252.494H246.808C247.128 251.802 247.613 251.246 248.264 250.825C248.915 250.399 249.756 250.186 250.786 250.186C251.709 250.186 252.517 250.375 253.209 250.754C253.902 251.127 254.44 251.695 254.825 252.459C255.21 253.216 255.402 254.175 255.402 255.335V264H253.307V255.477C253.307 254.406 253.029 253.571 252.472 252.974C251.916 252.37 251.153 252.068 250.182 252.068C249.513 252.068 248.915 252.213 248.389 252.503C247.868 252.793 247.456 253.216 247.155 253.773C246.853 254.329 246.702 255.004 246.702 255.797ZM265.161 250.364V252.139H258.094V250.364H265.161ZM260.154 247.097H262.249V260.094C262.249 260.686 262.335 261.129 262.507 261.425C262.684 261.715 262.909 261.911 263.181 262.011C263.459 262.106 263.752 262.153 264.06 262.153C264.291 262.153 264.48 262.142 264.628 262.118C264.776 262.088 264.895 262.065 264.983 262.047L265.41 263.929C265.268 263.982 265.069 264.036 264.815 264.089C264.56 264.148 264.238 264.178 263.847 264.178C263.255 264.178 262.675 264.05 262.107 263.796C261.545 263.541 261.077 263.154 260.704 262.633C260.337 262.112 260.154 261.455 260.154 260.662V247.097ZM268.313 264V250.364H270.408V264H268.313ZM269.378 248.091C268.97 248.091 268.617 247.952 268.322 247.674C268.032 247.395 267.886 247.061 267.886 246.67C267.886 246.28 268.032 245.945 268.322 245.667C268.617 245.389 268.97 245.25 269.378 245.25C269.786 245.25 270.136 245.389 270.426 245.667C270.721 245.945 270.869 246.28 270.869 246.67C270.869 247.061 270.721 247.395 270.426 247.674C270.136 247.952 269.786 248.091 269.378 248.091ZM280.318 250.364V252.139H272.967V250.364H280.318ZM275.169 264V248.482C275.169 247.7 275.352 247.049 275.719 246.528C276.086 246.008 276.562 245.617 277.148 245.357C277.734 245.096 278.353 244.966 279.004 244.966C279.519 244.966 279.939 245.007 280.264 245.09C280.59 245.173 280.833 245.25 280.992 245.321L280.389 247.132C280.282 247.097 280.134 247.052 279.945 246.999C279.761 246.946 279.519 246.919 279.217 246.919C278.524 246.919 278.024 247.094 277.716 247.443C277.415 247.792 277.264 248.304 277.264 248.979V264H275.169ZM283.254 264V250.364H285.349V264H283.254ZM284.319 248.091C283.911 248.091 283.559 247.952 283.263 247.674C282.973 247.395 282.828 247.061 282.828 246.67C282.828 246.28 282.973 245.945 283.263 245.667C283.559 245.389 283.911 245.25 284.319 245.25C284.728 245.25 285.077 245.389 285.367 245.667C285.663 245.945 285.811 246.28 285.811 246.67C285.811 247.061 285.663 247.395 285.367 247.674C285.077 247.952 284.728 248.091 284.319 248.091ZM294.726 264.284C293.448 264.284 292.347 263.982 291.424 263.379C290.501 262.775 289.79 261.943 289.293 260.884C288.796 259.824 288.547 258.614 288.547 257.253C288.547 255.868 288.802 254.646 289.311 253.586C289.826 252.521 290.542 251.689 291.459 251.092C292.383 250.488 293.46 250.186 294.691 250.186C295.65 250.186 296.514 250.364 297.283 250.719C298.053 251.074 298.683 251.571 299.174 252.21C299.665 252.849 299.97 253.595 300.089 254.447H297.993C297.834 253.826 297.479 253.276 296.928 252.796C296.384 252.311 295.65 252.068 294.726 252.068C293.91 252.068 293.194 252.281 292.578 252.707C291.968 253.128 291.492 253.722 291.149 254.492C290.811 255.255 290.643 256.152 290.643 257.182C290.643 258.235 290.808 259.153 291.14 259.934C291.477 260.715 291.951 261.322 292.56 261.754C293.176 262.186 293.898 262.402 294.726 262.402C295.271 262.402 295.765 262.307 296.209 262.118C296.653 261.929 297.029 261.656 297.337 261.301C297.644 260.946 297.863 260.52 297.993 260.023H300.089C299.97 260.828 299.677 261.553 299.21 262.198C298.748 262.837 298.136 263.346 297.372 263.725C296.614 264.098 295.733 264.284 294.726 264.284ZM307.164 264.32C306.3 264.32 305.516 264.157 304.812 263.831C304.107 263.5 303.548 263.023 303.134 262.402C302.719 261.775 302.512 261.017 302.512 260.129C302.512 259.348 302.666 258.715 302.974 258.229C303.282 257.738 303.693 257.353 304.208 257.075C304.723 256.797 305.291 256.59 305.913 256.454C306.54 256.312 307.17 256.199 307.803 256.116C308.632 256.01 309.304 255.93 309.819 255.877C310.34 255.818 310.718 255.72 310.955 255.584C311.198 255.448 311.319 255.211 311.319 254.874V254.803C311.319 253.927 311.079 253.246 310.6 252.761C310.127 252.275 309.407 252.033 308.443 252.033C307.442 252.033 306.658 252.252 306.09 252.69C305.522 253.128 305.122 253.595 304.892 254.092L302.903 253.382C303.258 252.554 303.732 251.908 304.323 251.447C304.921 250.979 305.572 250.654 306.277 250.47C306.987 250.281 307.685 250.186 308.372 250.186C308.81 250.186 309.313 250.239 309.881 250.346C310.455 250.446 311.008 250.657 311.541 250.976C312.08 251.296 312.527 251.778 312.882 252.423C313.237 253.068 313.414 253.933 313.414 255.016V264H311.319V262.153H311.213C311.071 262.449 310.834 262.766 310.502 263.103C310.171 263.441 309.73 263.728 309.18 263.964C308.629 264.201 307.957 264.32 307.164 264.32ZM307.484 262.438C308.312 262.438 309.011 262.275 309.579 261.949C310.153 261.624 310.585 261.203 310.875 260.689C311.171 260.174 311.319 259.632 311.319 259.064V257.146C311.23 257.253 311.035 257.35 310.733 257.439C310.437 257.522 310.094 257.596 309.703 257.661C309.319 257.72 308.943 257.774 308.576 257.821C308.215 257.862 307.922 257.898 307.697 257.928C307.152 257.999 306.643 258.114 306.17 258.274C305.702 258.428 305.324 258.661 305.034 258.975C304.75 259.283 304.607 259.703 304.607 260.236C304.607 260.964 304.877 261.514 305.415 261.887C305.96 262.254 306.649 262.438 307.484 262.438ZM323.169 250.364V252.139H316.102V250.364H323.169ZM318.162 247.097H320.257V260.094C320.257 260.686 320.343 261.129 320.514 261.425C320.692 261.715 320.917 261.911 321.189 262.011C321.467 262.106 321.76 262.153 322.068 262.153C322.299 262.153 322.488 262.142 322.636 262.118C322.784 262.088 322.902 262.065 322.991 262.047L323.417 263.929C323.275 263.982 323.077 264.036 322.823 264.089C322.568 264.148 322.246 264.178 321.855 264.178C321.263 264.178 320.683 264.05 320.115 263.796C319.553 263.541 319.085 263.154 318.712 262.633C318.345 262.112 318.162 261.455 318.162 260.662V247.097ZM326.32 264V250.364H328.416V264H326.32ZM327.386 248.091C326.977 248.091 326.625 247.952 326.329 247.674C326.039 247.395 325.894 247.061 325.894 246.67C325.894 246.28 326.039 245.945 326.329 245.667C326.625 245.389 326.977 245.25 327.386 245.25C327.794 245.25 328.143 245.389 328.433 245.667C328.729 245.945 328.877 246.28 328.877 246.67C328.877 247.061 328.729 247.395 328.433 247.674C328.143 247.952 327.794 248.091 327.386 248.091ZM337.793 264.284C336.562 264.284 335.482 263.991 334.552 263.405C333.629 262.819 332.907 262 332.386 260.946C331.871 259.893 331.614 258.661 331.614 257.253C331.614 255.832 331.871 254.592 332.386 253.533C332.907 252.474 333.629 251.651 334.552 251.065C335.482 250.479 336.562 250.186 337.793 250.186C339.024 250.186 340.101 250.479 341.024 251.065C341.954 251.651 342.676 252.474 343.191 253.533C343.711 254.592 343.972 255.832 343.972 257.253C343.972 258.661 343.711 259.893 343.191 260.946C342.676 262 341.954 262.819 341.024 263.405C340.101 263.991 339.024 264.284 337.793 264.284ZM337.793 262.402C338.728 262.402 339.497 262.162 340.101 261.683C340.705 261.203 341.152 260.573 341.442 259.792C341.732 259.011 341.877 258.164 341.877 257.253C341.877 256.341 341.732 255.492 341.442 254.705C341.152 253.918 340.705 253.281 340.101 252.796C339.497 252.311 338.728 252.068 337.793 252.068C336.858 252.068 336.088 252.311 335.485 252.796C334.881 253.281 334.434 253.918 334.144 254.705C333.854 255.492 333.709 256.341 333.709 257.253C333.709 258.164 333.854 259.011 334.144 259.792C334.434 260.573 334.881 261.203 335.485 261.683C336.088 262.162 336.858 262.402 337.793 262.402ZM349.265 255.797V264H347.17V250.364H349.194V252.494H349.372C349.691 251.802 350.177 251.246 350.828 250.825C351.479 250.399 352.319 250.186 353.349 250.186C354.272 250.186 355.08 250.375 355.773 250.754C356.465 251.127 357.004 251.695 357.388 252.459C357.773 253.216 357.966 254.175 357.966 255.335V264H355.87V255.477C355.87 254.406 355.592 253.571 355.036 252.974C354.479 252.37 353.716 252.068 352.745 252.068C352.077 252.068 351.479 252.213 350.952 252.503C350.431 252.793 350.02 253.216 349.718 253.773C349.416 254.329 349.265 255.004 349.265 255.797ZM379.053 250.364C378.946 249.464 378.514 248.766 377.756 248.268C376.999 247.771 376.07 247.523 374.969 247.523C374.164 247.523 373.46 247.653 372.856 247.913C372.258 248.174 371.791 248.532 371.453 248.988C371.122 249.443 370.956 249.961 370.956 250.541C370.956 251.027 371.071 251.444 371.302 251.793C371.539 252.136 371.841 252.423 372.208 252.654C372.575 252.879 372.959 253.065 373.362 253.213C373.764 253.355 374.134 253.471 374.472 253.56L376.318 254.057C376.792 254.181 377.318 254.353 377.898 254.572C378.484 254.791 379.044 255.09 379.576 255.468C380.115 255.841 380.559 256.321 380.908 256.907C381.257 257.493 381.432 258.212 381.432 259.064C381.432 260.046 381.174 260.934 380.659 261.727C380.15 262.52 379.405 263.151 378.422 263.618C377.446 264.086 376.259 264.32 374.862 264.32C373.56 264.32 372.433 264.109 371.48 263.689C370.533 263.269 369.787 262.683 369.243 261.931C368.704 261.18 368.399 260.307 368.328 259.312H370.601C370.66 259.999 370.891 260.567 371.293 261.017C371.702 261.461 372.217 261.792 372.838 262.011C373.465 262.224 374.14 262.331 374.862 262.331C375.703 262.331 376.457 262.195 377.126 261.923C377.795 261.644 378.325 261.26 378.715 260.768C379.106 260.271 379.301 259.691 379.301 259.028C379.301 258.425 379.133 257.933 378.795 257.555C378.458 257.176 378.014 256.868 377.463 256.631C376.913 256.395 376.318 256.187 375.679 256.01L373.442 255.371C372.021 254.962 370.897 254.379 370.068 253.622C369.24 252.864 368.825 251.873 368.825 250.648C368.825 249.63 369.101 248.742 369.651 247.984C370.207 247.221 370.953 246.629 371.888 246.209C372.829 245.783 373.88 245.57 375.04 245.57C376.212 245.57 377.253 245.78 378.165 246.2C379.076 246.614 379.798 247.182 380.331 247.904C380.87 248.627 381.154 249.446 381.183 250.364H379.053ZM393.361 258.425V250.364H395.457V264H393.361V261.692H393.219C392.9 262.384 392.403 262.973 391.728 263.458C391.053 263.938 390.201 264.178 389.171 264.178C388.319 264.178 387.561 263.991 386.898 263.618C386.236 263.239 385.715 262.671 385.336 261.914C384.957 261.15 384.768 260.188 384.768 259.028V250.364H386.863V258.886C386.863 259.881 387.141 260.674 387.697 261.266C388.26 261.857 388.976 262.153 389.846 262.153C390.367 262.153 390.896 262.02 391.435 261.754C391.979 261.488 392.435 261.079 392.802 260.529C393.175 259.978 393.361 259.277 393.361 258.425ZM399.578 264V245.818H401.673V252.53H401.851C402.005 252.293 402.218 251.991 402.49 251.624C402.768 251.251 403.165 250.92 403.68 250.63C404.201 250.334 404.905 250.186 405.793 250.186C406.941 250.186 407.953 250.473 408.829 251.047C409.705 251.621 410.388 252.435 410.88 253.489C411.371 254.542 411.617 255.785 411.617 257.217C411.617 258.661 411.371 259.913 410.88 260.973C410.388 262.026 409.708 262.843 408.838 263.423C407.968 263.997 406.965 264.284 405.828 264.284C404.952 264.284 404.251 264.139 403.724 263.849C403.197 263.553 402.792 263.219 402.508 262.846C402.224 262.467 402.005 262.153 401.851 261.905H401.602V264H399.578ZM401.638 257.182C401.638 258.212 401.789 259.12 402.091 259.907C402.392 260.689 402.833 261.301 403.413 261.745C403.993 262.183 404.704 262.402 405.544 262.402C406.42 262.402 407.151 262.171 407.737 261.71C408.329 261.242 408.773 260.615 409.069 259.827C409.37 259.034 409.521 258.152 409.521 257.182C409.521 256.223 409.373 255.359 409.077 254.589C408.787 253.814 408.347 253.202 407.755 252.752C407.169 252.296 406.432 252.068 405.544 252.068C404.692 252.068 403.976 252.284 403.396 252.716C402.816 253.142 402.378 253.74 402.082 254.51C401.786 255.273 401.638 256.164 401.638 257.182ZM424.481 253.418L422.598 253.95C422.48 253.637 422.305 253.332 422.075 253.036C421.85 252.734 421.542 252.485 421.151 252.29C420.761 252.095 420.261 251.997 419.651 251.997C418.816 251.997 418.121 252.19 417.565 252.574C417.014 252.953 416.739 253.435 416.739 254.021C416.739 254.542 416.928 254.953 417.307 255.255C417.686 255.557 418.278 255.809 419.083 256.01L421.107 256.507C422.326 256.803 423.235 257.256 423.832 257.865C424.43 258.469 424.729 259.247 424.729 260.2C424.729 260.982 424.504 261.68 424.054 262.295C423.61 262.911 422.989 263.396 422.19 263.751C421.391 264.107 420.462 264.284 419.402 264.284C418.012 264.284 416.86 263.982 415.949 263.379C415.037 262.775 414.46 261.893 414.218 260.733L416.206 260.236C416.396 260.97 416.754 261.52 417.281 261.887C417.813 262.254 418.509 262.438 419.367 262.438C420.343 262.438 421.119 262.23 421.693 261.816C422.273 261.396 422.563 260.893 422.563 260.307C422.563 259.833 422.397 259.437 422.066 259.117C421.734 258.792 421.225 258.549 420.539 258.389L418.266 257.857C417.017 257.561 416.1 257.102 415.514 256.48C414.934 255.853 414.644 255.069 414.644 254.128C414.644 253.358 414.86 252.678 415.292 252.086C415.73 251.494 416.325 251.029 417.076 250.692C417.834 250.355 418.692 250.186 419.651 250.186C421 250.186 422.06 250.482 422.829 251.074C423.605 251.666 424.155 252.447 424.481 253.418ZM429.232 269.114C428.877 269.114 428.561 269.084 428.282 269.025C428.004 268.972 427.812 268.918 427.705 268.865L428.238 267.018C428.747 267.149 429.197 267.196 429.587 267.161C429.978 267.125 430.324 266.95 430.626 266.637C430.934 266.329 431.215 265.829 431.47 265.136L431.86 264.071L426.818 250.364H429.09L432.855 261.23H432.997L436.761 250.364H439.034L433.245 265.989C432.985 266.693 432.662 267.276 432.277 267.738C431.893 268.205 431.446 268.551 430.937 268.776C430.434 269.001 429.866 269.114 429.232 269.114ZM451.458 253.418L449.576 253.95C449.458 253.637 449.283 253.332 449.052 253.036C448.827 252.734 448.519 252.485 448.129 252.29C447.738 252.095 447.238 251.997 446.629 251.997C445.794 251.997 445.099 252.19 444.542 252.574C443.992 252.953 443.717 253.435 443.717 254.021C443.717 254.542 443.906 254.953 444.285 255.255C444.664 255.557 445.255 255.809 446.06 256.01L448.084 256.507C449.304 256.803 450.212 257.256 450.81 257.865C451.408 258.469 451.707 259.247 451.707 260.2C451.707 260.982 451.482 261.68 451.032 262.295C450.588 262.911 449.967 263.396 449.168 263.751C448.369 264.107 447.439 264.284 446.38 264.284C444.989 264.284 443.838 263.982 442.926 263.379C442.015 262.775 441.438 261.893 441.195 260.733L443.184 260.236C443.373 260.97 443.731 261.52 444.258 261.887C444.791 262.254 445.486 262.438 446.344 262.438C447.321 262.438 448.096 262.23 448.67 261.816C449.25 261.396 449.54 260.893 449.54 260.307C449.54 259.833 449.375 259.437 449.043 259.117C448.712 258.792 448.203 258.549 447.516 258.389L445.244 257.857C443.995 257.561 443.077 257.102 442.491 256.48C441.911 255.853 441.621 255.069 441.621 254.128C441.621 253.358 441.837 252.678 442.269 252.086C442.707 251.494 443.302 251.029 444.054 250.692C444.812 250.355 445.67 250.186 446.629 250.186C447.978 250.186 449.037 250.482 449.807 251.074C450.582 251.666 451.133 252.447 451.458 253.418ZM460.791 250.364V252.139H453.724V250.364H460.791ZM455.784 247.097H457.879V260.094C457.879 260.686 457.965 261.129 458.136 261.425C458.314 261.715 458.539 261.911 458.811 262.011C459.089 262.106 459.382 262.153 459.69 262.153C459.921 262.153 460.11 262.142 460.258 262.118C460.406 262.088 460.525 262.065 460.613 262.047L461.039 263.929C460.897 263.982 460.699 264.036 460.445 264.089C460.19 264.148 459.868 264.178 459.477 264.178C458.885 264.178 458.305 264.05 457.737 263.796C457.175 263.541 456.707 263.154 456.334 262.633C455.967 262.112 455.784 261.455 455.784 260.662V247.097ZM469.513 264.284C468.199 264.284 467.066 263.994 466.113 263.414C465.166 262.828 464.435 262.011 463.92 260.964C463.411 259.91 463.157 258.685 463.157 257.288C463.157 255.892 463.411 254.661 463.92 253.595C464.435 252.524 465.151 251.689 466.069 251.092C466.992 250.488 468.069 250.186 469.3 250.186C470.011 250.186 470.712 250.304 471.404 250.541C472.097 250.778 472.727 251.163 473.295 251.695C473.864 252.222 474.316 252.92 474.654 253.79C474.991 254.661 475.16 255.732 475.16 257.004V257.892H464.648V256.081H473.029C473.029 255.312 472.875 254.625 472.567 254.021C472.265 253.418 471.833 252.941 471.271 252.592C470.715 252.243 470.058 252.068 469.3 252.068C468.466 252.068 467.744 252.275 467.134 252.69C466.53 253.098 466.066 253.631 465.74 254.288C465.415 254.945 465.252 255.649 465.252 256.401V257.608C465.252 258.638 465.43 259.511 465.785 260.227C466.146 260.937 466.646 261.479 467.285 261.852C467.924 262.219 468.667 262.402 469.513 262.402C470.064 262.402 470.561 262.325 471.005 262.171C471.455 262.011 471.842 261.775 472.168 261.461C472.493 261.141 472.745 260.745 472.922 260.271L474.947 260.839C474.734 261.526 474.375 262.13 473.872 262.651C473.369 263.165 472.748 263.568 472.008 263.858C471.268 264.142 470.437 264.284 469.513 264.284ZM478.347 264V250.364H480.371V252.494H480.549C480.833 251.766 481.291 251.201 481.925 250.799C482.558 250.39 483.318 250.186 484.206 250.186C485.106 250.186 485.855 250.39 486.452 250.799C487.056 251.201 487.527 251.766 487.864 252.494H488.006C488.355 251.79 488.879 251.231 489.577 250.816C490.276 250.396 491.113 250.186 492.09 250.186C493.309 250.186 494.306 250.568 495.082 251.331C495.857 252.089 496.245 253.27 496.245 254.874V264H494.149V254.874C494.149 253.867 493.874 253.148 493.324 252.716C492.773 252.284 492.125 252.068 491.379 252.068C490.421 252.068 489.678 252.358 489.151 252.938C488.624 253.512 488.361 254.24 488.361 255.122V264H486.23V254.661C486.23 253.885 485.979 253.261 485.476 252.787C484.973 252.308 484.325 252.068 483.531 252.068C482.987 252.068 482.478 252.213 482.004 252.503C481.537 252.793 481.158 253.196 480.868 253.711C480.584 254.22 480.442 254.808 480.442 255.477V264H478.347Z" fill="black"/>
<defs>
<clipPath id="clip0_6_5">
<rect width="548" height="225" fill="white"/>
</clipPath>
</defs>
</svg>
