<svg width="731" height="256" viewBox="0 0 731 256" fill="none" xmlns="http://www.w3.org/2000/svg">
<g clip-path="url(#clip0_1:10)">
<path d="M619.514 11L635.26 51.9155" stroke="black" stroke-width="16" stroke-linecap="round"/>
<path d="M680.954 72.2141L721.87 56.4687" stroke="black" stroke-width="16" stroke-linecap="round"/>
<path d="M673.055 28.2188L655.257 68.2841" stroke="black" stroke-width="16" stroke-linecap="round"/>
<path d="M170.364 182.843C174.552 182.843 177.824 186.505 177.066 190.624C173.449 210.274 165.181 225.752 152.263 237.055C137.786 249.71 118.5 256.037 94.4058 256.037C68.2866 256.037 47.3306 246.673 31.5376 227.944C15.8459 209.215 8 184.159 8 152.775V131.516C8 110.965 11.6445 92.8937 18.9336 77.3032C26.3239 61.7127 36.7513 49.7668 50.2158 41.4653C63.6803 33.0627 79.2708 28.8613 96.9873 28.8613C120.474 28.8613 139.304 35.4417 153.478 48.6025C166.048 60.1849 173.959 75.7488 177.213 95.2942C177.893 99.3805 174.634 102.967 170.492 102.967H154.988C151.507 102.967 148.581 100.4 147.911 96.9837C145.059 82.4334 139.879 71.6719 132.37 64.6992C123.967 56.8027 112.173 52.8545 96.9873 52.8545C78.3597 52.8545 63.731 59.7386 53.1011 73.5068C42.5724 87.2751 37.3081 106.864 37.3081 132.275V153.687C37.3081 177.68 42.3193 196.763 52.3418 210.936C62.3643 225.109 76.3856 232.196 94.4058 232.196C110.604 232.196 123.005 228.551 131.61 221.262C139.344 214.697 144.761 203.859 147.862 188.747C148.556 185.366 151.467 182.843 154.917 182.843H170.364Z" fill="black"/>
<path d="M244.287 246C244.287 249.866 241.153 253 237.287 253H223.194C219.328 253 216.194 249.866 216.194 246V26.75C216.194 22.884 219.328 19.75 223.194 19.75H237.287C241.153 19.75 244.287 22.884 244.287 26.75V246Z" fill="black"/>
<path d="M319.911 246C319.911 249.866 316.777 253 312.911 253H298.818C294.952 253 291.818 249.866 291.818 246V95.6924C291.818 91.8264 294.952 88.6924 298.818 88.6924H312.911C316.777 88.6924 319.911 91.8264 319.911 95.6924V246ZM289.54 45.1099C289.54 40.5542 290.907 36.7072 293.64 33.5688C296.475 30.4305 300.625 28.8613 306.092 28.8613C311.559 28.8613 315.71 30.4305 318.544 33.5688C321.379 36.7072 322.796 40.5542 322.796 45.1099C322.796 49.6655 321.379 53.4619 318.544 56.499C315.71 59.5361 311.559 61.0547 306.092 61.0547C300.625 61.0547 296.475 59.5361 293.64 56.499C290.907 53.4619 289.54 49.6655 289.54 45.1099Z" fill="black"/>
<path d="M430.917 233.107C440.94 233.107 449.697 230.07 457.188 223.996C462.884 219.377 466.649 213.881 468.482 207.508C469.485 204.023 472.42 201.217 476.046 201.217H488.829C492.843 201.217 496.083 204.606 495.253 208.533C493.821 215.302 490.903 221.823 486.497 228.096C480.524 236.6 472.526 243.382 462.503 248.444C452.582 253.506 442.054 256.037 430.917 256.037C408.544 256.037 390.726 248.596 377.464 233.714C364.304 218.731 357.723 198.281 357.723 172.365V167.657C357.723 151.662 360.659 137.438 366.531 124.986C372.402 112.534 380.805 102.866 391.739 95.9814C402.774 89.0973 415.783 85.6553 430.766 85.6553C449.191 85.6553 464.478 91.1727 476.626 102.208C487.138 111.677 493.438 123.571 495.526 137.887C496.102 141.837 492.878 145.183 488.886 145.183H476.128C472.468 145.183 469.495 142.342 468.708 138.768C466.996 130.996 463.257 124.428 457.492 119.063C450.304 112.179 441.396 108.737 430.766 108.737C416.491 108.737 405.406 113.9 397.509 124.227C389.714 134.451 385.816 149.283 385.816 168.72V174.035C385.816 192.966 389.714 207.545 397.509 217.77C405.305 227.994 416.441 233.107 430.917 233.107Z" fill="black"/>
<path d="M578.611 183.498C576.017 180.05 570.951 179.748 567.965 182.863L557.993 193.264C556.744 194.567 556.046 196.303 556.046 198.108V246C556.046 249.866 552.912 253 549.046 253H534.953C531.087 253 527.953 249.866 527.953 246V26.75C527.953 22.884 531.087 19.75 534.953 19.75H549.046C552.912 19.75 556.046 22.884 556.046 26.75V141.464C556.046 148.014 564.239 150.977 568.428 145.941L571.08 142.753L620.184 90.8802C621.506 89.4836 623.345 88.6924 625.268 88.6924H640.337C646.454 88.6924 649.628 95.987 645.459 100.463L596.473 153.056C594.168 155.532 593.962 159.302 595.985 162.013L655.519 241.814C658.963 246.431 655.668 253 649.908 253H634.404C632.205 253 630.133 251.966 628.811 250.209L578.611 183.498Z" fill="black"/>
<path d="M319.911 246C319.911 249.866 316.777 253 312.911 253H298.818C294.952 253 291.818 249.866 291.818 246V95.6924C291.818 91.8264 294.952 88.6924 298.818 88.6924H312.911C316.777 88.6924 319.911 91.8264 319.911 95.6924V246ZM289.54 45.1099C289.54 40.5542 290.907 36.7072 293.64 33.5688C296.475 30.4305 300.625 28.8613 306.092 28.8613C311.559 28.8613 315.71 30.4305 318.544 33.5688C321.379 36.7072 322.796 40.5542 322.796 45.1099C322.796 49.6655 321.379 53.4619 318.544 56.499C315.71 59.5361 311.559 61.0547 306.092 61.0547C300.625 61.0547 296.475 59.5361 293.64 56.499C290.907 53.4619 289.54 49.6655 289.54 45.1099Z" fill="black"/>
</g>
<defs>
<clipPath id="clip0_1:10">
<rect width="731" height="256" fill="white"/>
</clipPath>
</defs>
</svg>
